<?xml version="1.0" standalone="no"?>
<!DOCTYPE svg PUBLIC "-//W3C//DTD SVG 1.1//EN" "http://www.w3.org/Graphics/SVG/1.1/DTD/svg11.dtd" >
<svg xmlns="http://www.w3.org/2000/svg">
<metadata>
This is a custom SVG webfont generated by Fontspring.
</metadata>
<defs>
<font id="webfontTg2qcm4o" horiz-adv-x="1447" >
<font-face units-per-em="2048" ascent="1542" descent="-506" />
<missing-glyph horiz-adv-x="512" />
<glyph unicode=" "  horiz-adv-x="512" />
<glyph unicode="&#x09;" horiz-adv-x="512" />
<glyph unicode="&#xa0;" horiz-adv-x="512" />
<glyph unicode="!" horiz-adv-x="839" d="M150 204.5q0 98.5 75.5 163t194.5 64.5q115 0 192.5 -65.5t77.5 -159.5q0 -98 -82 -167t-196 -69q-111 0 -186.5 67.5t-75.5 166zM176 522v930h477v-930h-477z" />
<glyph unicode="&#x22;" horiz-adv-x="903" d="M88 1366h309l-51 -563h-209zM506 1366h309l-51 -563h-209z" />
<glyph unicode="#" d="M211 631h231l17 129h-201l-2 221h229l47 385h222l-47 -385h131l47 385h225l-47 -385h174v-221h-203l-16 -129h180l2 -219h-209l-51 -412h-223l51 412h-131l-51 -412h-221l51 412h-203zM664 631h131l16 129h-131z" />
<glyph unicode="$" d="M164 164l139 360q115 -94 204 -134t189 -40q154 0 154 84q0 68 -100 84l-123 21q-147 25 -238 75q-82 45 -130 130t-48 188q0 164 104.5 280.5t278.5 149.5v221h268v-209q180 -14 348 -106l-135 -344q-150 117 -313 116q-57 0 -92 -22.5t-35 -61.5q0 -33 22.5 -49 t75.5 -24l111 -15q438 -57 438 -407q0 -109 -48 -202t-136 -155q-90 -66 -242 -88v-252h-254v248q-209 5 -438 152z" />
<glyph unicode="%" horiz-adv-x="2103" d="M47 1018q0 172 117 270t319 98q195 0 312.5 -103t117.5 -273q0 -168 -119.5 -271.5t-316.5 -103.5q-193 0 -311.5 105.5t-118.5 277.5zM401 1016q0 -43 22.5 -69.5t57.5 -26.5q39 0 62.5 27.5t23.5 72.5q0 41 -22.5 67.5t-59.5 26.5q-35 0 -59.5 -28.5t-24.5 -69.5z M618 43l693 1366l172 -86l-692 -1366zM1188 362.5q0 172.5 116.5 270.5t319.5 98q195 0 312.5 -103.5t117.5 -273.5q0 -168 -119.5 -271t-316.5 -103q-193 0 -311.5 105t-118.5 277.5zM1542 360q0 -43 22.5 -69.5t57.5 -26.5q39 0 62.5 27.5t23.5 73.5q0 41 -22.5 67.5 t-59.5 26.5q-35 0 -59.5 -29t-24.5 -70z" />
<glyph unicode="&#x26;" horiz-adv-x="1726" d="M82 406q0 152 113 245q76 63 229 101q-74 72 -103.5 128t-29.5 126q0 186 162 292q129 88 346 88q174 0 297 -71q197 -117 196 -307q0 -143 -110 -248q-53 -51 -154 -90l121 -125q63 45 95 76.5t116 130.5l258 -295q-72 -63 -145 -113q-18 -10 -68 -47l315 -297h-571 l-88 106q-119 -74 -212 -100t-224 -26q-221 0 -355 90q-188 125 -188 336zM547 424q0 -47 33.5 -74.5t91.5 -27.5q37 0 129 34l-174 172q-80 -53 -80 -104zM737 1004q0 -59 68 -107q92 55 92 115q0 33 -22.5 56.5t-51.5 23.5q-35 0 -60.5 -25.5t-25.5 -62.5z" />
<glyph unicode="'" horiz-adv-x="458" d="M76 1366h309l-51 -563h-209z" />
<glyph unicode="(" horiz-adv-x="827" d="M106 598q0 240 52 453q35 139 66.5 220t137.5 298l11 26l348 -202q-100 -236 -131 -375q-49 -221 -49 -422q0 -221 49 -467q31 -147 131 -416l-348 -202l-11 28l-81 185q-175 382 -175 874z" />
<glyph unicode=")" horiz-adv-x="827" d="M104 -287q100 236 132 375q49 221 49 422q0 225 -49 467q-31 154 -132 416l349 202l12 -28l82 -185q172 -387 172 -874q0 -240 -51 -453q-29 -121 -55.5 -188.5t-116.5 -261.5l-31 -68l-12 -26z" />
<glyph unicode="*" d="M338 1122l76 234l209 -88l-23 225h246l-21 -225l209 88l76 -234l-221 -49l149 -170l-198 -145l-115 194l-117 -194l-198 145l149 170z" />
<glyph unicode="+" d="M211 545v301h362v348h301v-348h361v-301h-361v-346h-301v346h-362z" />
<glyph unicode="," horiz-adv-x="729" d="M-20 -328l219 676h469l-324 -676h-364z" />
<glyph unicode="-" horiz-adv-x="645" d="M0 307v371h645v-371h-645z" />
<glyph unicode="." horiz-adv-x="727" d="M94 205q0 94 79 159.5t191.5 65.5t190.5 -66.5t78 -160.5q0 -96 -78 -163t-190 -67q-115 0 -193 67t-78 165z" />
<glyph unicode="/" horiz-adv-x="1116" d="M-27 -395l772 1888h355l-772 -1888h-355z" />
<glyph unicode="0" d="M74 678q0 326 177 517t478 191q291 0 467 -197.5t176 -522.5q0 -332 -207 -521q-182 -166 -444 -165q-324 0 -506 235q-141 180 -141 463zM547 682q0 -133 46 -207t128 -74t129 73t47 202q0 135 -49 221t-125 86q-78 0 -127 -84t-49 -217z" />
<glyph unicode="1" d="M342 911v432l702 23v-1366h-491v928z" />
<glyph unicode="2" d="M8 0l43 38q23 19 35 32l14 12l93 82l376 334q283 250 283 372q0 47 -33 79t-82 32q-59 0 -86.5 -40t-32.5 -132h-485q14 172 50 267t118 165q170 145 457 145q260 0 422 -141q164 -139 163 -342q0 -219 -200 -377q-100 -80 -279 -141v-14q168 39 498 49v-420h-1354z" />
<glyph unicode="3" d="M84 481h500q2 -72 40 -112.5t101 -40.5q53 0 93 37.5t40 89.5q0 49 -39 86t-90 37q-27 0 -63 -7v283q33 -4 41 -4q41 0 71.5 29.5t30.5 68.5t-26.5 64.5t-67.5 25.5q-39 0 -66.5 -28.5t-23.5 -65.5q0 -6 2 -10h-488q12 106 37 169.5t76 119.5q147 164 471 163 q260 0 403 -104q164 -123 164 -289q0 -178 -168 -260v-10q92 -31 142 -82q84 -90 84 -223q0 -106 -61.5 -204.5t-162.5 -154.5q-145 -80 -397 -79q-317 0 -483 143q-94 80 -133 203q-19 59 -27 155z" />
<glyph unicode="4" d="M66 260v356l559 750h585v-735l172 12v-383l-184 12l12 -272h-469l17 272zM518 627l4 -11q43 8 99 11l139 4l6 227q2 51 12 88l-10 8q-25 -51 -61 -96l-129 -164q-35 -42 -60 -67z" />
<glyph unicode="5" d="M152 90l55 371q84 -45 206 -79t201 -34q100 0 170 38t70 93q0 63 -76 101t-198 38q-197 0 -361 -59l119 807h928v-381h-584q-12 -100 -43 -158h12q61 72 230 72q203 0 336 -121t133 -305q0 -104 -52.5 -200.5t-142.5 -157.5q-201 -135 -457 -135q-117 0 -288.5 34.5 t-257.5 75.5z" />
<glyph unicode="6" d="M51 561q0 256 215 477l322 328h651l-401 -354l-37 -29l2 -10q100 18 137 18q170 0 288 -134t118 -327q0 -242 -181.5 -396t-464.5 -154q-299 0 -477 174q-78 78 -125 187t-47 220zM528 537q0 -70 47.5 -118t118.5 -48q74 0 123 46t49 115q0 72 -51 124.5t-123 52.5 q-68 0 -116 -50t-48 -122z" />
<glyph unicode="7" d="M147 0l525 881q27 45 49 65l-2 10q-94 -14 -178 -16l-394 -12v438h1326l-777 -1366h-549z" />
<glyph unicode="8" d="M100 393q0 119 80 209q49 57 166 98l2 13q-205 68 -205 270q0 178 163 290.5t421 112.5q217 0 369 -81q94 -51 150.5 -141.5t56.5 -188.5q0 -190 -211 -262l2 -13q113 -29 170 -88q82 -86 82 -213q0 -100 -55.5 -187t-153.5 -142q-162 -90 -406 -90t-409 81 q-100 51 -161 142.5t-61 189.5zM590 442q0 -53 40 -93t95 -40t95 39t40 94.5t-39 94t-96 38.5q-55 0 -95 -39t-40 -94zM621 940q0 -41 30.5 -71.5t71.5 -30.5q43 0 73.5 29.5t30.5 74.5q0 41 -30.5 71.5t-71.5 30.5q-43 0 -73.5 -30.5t-30.5 -73.5z" />
<glyph unicode="9" d="M74 844q0 242 175 392t458 150q305 0 486 -154.5t181 -414.5q0 -254 -203 -469l-331 -348h-660l359 317q8 6 16 13.5t13 11.5t7 6q6 6 31 17v10q-55 -6 -76 -6q-90 0 -204 47q-117 47 -184.5 162.5t-67.5 265.5zM565 821q0 -66 49.5 -115t114.5 -49q70 0 117 48.5t47 116 t-48 115.5t-115.5 48t-116 -48t-48.5 -116z" />
<glyph unicode=":" horiz-adv-x="727" d="M94 205q0 94 79 159.5t191.5 65.5t190.5 -66.5t78 -160.5q0 -96 -78 -163t-190 -67q-115 0 -193 67t-78 165zM94 760q0 92 79 157.5t191.5 65.5t190.5 -66.5t78 -160.5t-78 -161t-190 -67q-115 0 -193 67t-78 165z" />
<glyph unicode=";" horiz-adv-x="729" d="M-20 -328l219 676h469l-324 -676h-364zM176 760q0 92 79 157.5t191.5 65.5t190.5 -66.5t78 -160.5t-78 -161t-191 -67q-115 0 -192.5 67t-77.5 165z" />
<glyph unicode="&#x3c;" horiz-adv-x="1024" d="M70 522v344l886 500v-412l-450 -262l450 -262v-407z" />
<glyph unicode="=" d="M211 389v232h1024v-232h-1024zM211 772v232h1024v-232h-1024z" />
<glyph unicode="&#x3e;" horiz-adv-x="1024" d="M68 23v409l450 262l-450 264v408l886 -502v-342z" />
<glyph unicode="?" horiz-adv-x="1261" d="M82 985q10 123 49 199q72 137 202 213t298 76q240 0 383 -121q76 -66 121 -169.5t45 -209.5q0 -209 -150.5 -334t-404.5 -125q-57 0 -150 16v353q61 -18 94 -19q70 0 114 40t44 104q0 41 -23.5 65.5t-62.5 24.5q-82 0 -94 -113h-465zM358 204.5q0 98.5 79 161t202 62.5 q115 0 188.5 -64.5t73.5 -164.5q0 -98 -76.5 -162t-197.5 -64q-115 0 -192 66.5t-77 165z" />
<glyph unicode="@" horiz-adv-x="1466" d="M76 672q0 285 200.5 483.5t489.5 198.5q256 0 440.5 -167t184.5 -403q0 -113 -50.5 -212t-138.5 -164q-127 -94 -254 -95q-96 0 -147 70q-80 -49 -120 -63.5t-89 -14.5q-115 0 -190.5 81t-75.5 204q0 164 122.5 298t274.5 134q121 0 199 -82l18 49h215l-156 -485l-4 -12 q-2 -6 -3 -10.5t-1 -6.5q-8 -16 -8 -31q0 -12 11.5 -22t25.5 -10q27 0 73 31.5t81 72.5q88 115 88 256q0 188 -146.5 324.5t-349.5 136.5q-231 0 -391 -162t-160 -397q0 -238 163 -403t398 -165q106 0 190.5 35t180.5 119l84 -94q-215 -184 -463 -184q-287 0 -489.5 201.5 t-202.5 488.5zM561 510q0 -47 20.5 -75.5t53.5 -28.5q96 0 164 192l45 129q20 55 20 98q0 35 -20.5 59.5t-48.5 24.5q-94 0 -164 -147q-70 -154 -70 -252z" />
<glyph unicode="A" horiz-adv-x="1509" d="M0 0l473 1366h549l487 -1366h-526l-45 170h-377l-37 -170h-524zM653 494h199l-64 262l-16 78q-4 16 -10 75h-19q-14 -121 -22 -153z" />
<glyph unicode="B" horiz-adv-x="1386" d="M137 0v1366h596q317 0 430 -139q82 -96 82 -236q0 -121 -63 -203q-33 -43 -113 -77v-11q129 -57 174 -118q68 -90 68 -201q0 -139 -97 -246q-123 -135 -383 -135h-694zM596 330h100q72 0 112 28.5t40 81.5q0 51 -39 82t-104 31h-109v-223zM596 842h80q55 0 87 27.5 t32 74.5q0 94 -121 94h-78v-196z" />
<glyph unicode="C" horiz-adv-x="1210" d="M76 672q0 299 204.5 506.5t501.5 207.5q193 0 340 -53l15 -520q-158 137 -289 137q-113 0 -191.5 -76.5t-78.5 -185.5q0 -115 80.5 -192.5t199.5 -77.5q139 0 279 127l-15 -510q-127 -55 -350 -55q-293 0 -494.5 200.5t-201.5 491.5z" />
<glyph unicode="D" horiz-adv-x="1525" d="M137 0v1366h527q371 0 579.5 -184.5t208.5 -511.5q0 -315 -201 -496q-199 -174 -463 -174h-651zM631 418h69q113 0 184.5 73.5t71.5 188.5q0 121 -70.5 194.5t-185.5 73.5h-69v-530z" />
<glyph unicode="E" horiz-adv-x="1146" d="M137 0v1366h922v-375h-424v-127h385v-358h-385v-131h438v-375h-936z" />
<glyph unicode="F" horiz-adv-x="1110" d="M137 0v1366h912v-389h-414v-139h364v-359h-364v-479h-498z" />
<glyph unicode="G" horiz-adv-x="1646" d="M76 678q0 315 210 511.5t545 196.5q291 0 502 -155q113 -86 170 -193l-463 -172q-68 104 -190 105q-119 0 -195.5 -88t-76.5 -226q0 -129 71.5 -210.5t186.5 -81.5q158 0 196 116h-225v324h766q0 -203 -26.5 -319.5t-94.5 -209.5q-100 -137 -271 -216.5t-368 -79.5 q-324 0 -530.5 195.5t-206.5 502.5z" />
<glyph unicode="H" horiz-adv-x="1531" d="M137 0v1366h477v-463h306v463h477v-1366h-477v475h-306v-475h-477z" />
<glyph unicode="I" horiz-adv-x="770" d="M137 0v1366h498v-1366h-498z" />
<glyph unicode="J" horiz-adv-x="987" d="M-20 129l180 422q35 -143 119 -143q86 0 86 124v834h487v-940q0 -188 -134 -317t-331 -129q-202 -1 -407 149z" />
<glyph unicode="K" horiz-adv-x="1523" d="M137 0v1366h477v-375q0 -129 -10 -217h10q12 57 58 133q61 102 67 117l185 342h540l-428 -666l473 -700h-575l-225 391l-29 53l-55 101q-4 4 -11 26h-10q10 -68 10 -194v-377h-477z" />
<glyph unicode="L" horiz-adv-x="1079" d="M137 0v1366h498v-926h418v-440h-916z" />
<glyph unicode="M" horiz-adv-x="2013" d="M82 0l221 1366h510l160 -559q14 -53 31 -160h12q6 88 26 160l160 559h506l223 -1366h-477l-61 612q-6 45 -9 136h-8q-16 -90 -26 -115l-203 -633h-291l-182 598q-16 57 -27 150h-14q0 -84 -2 -109l-68 -639h-481z" />
<glyph unicode="N" horiz-adv-x="1640" d="M137 0v1366h475l316 -514q78 -129 129 -244h14q-23 109 -27 153t-8 173l-8 432h475v-1366h-475l-340 539q-43 70 -94 178h-14q27 -166 26 -252l6 -465h-475z" />
<glyph unicode="O" horiz-adv-x="1658" d="M76 694q0 150 64.5 288t178.5 235q203 170 519 169q330 0 538.5 -196.5t208.5 -507.5q0 -309 -215 -505.5t-555 -196.5q-326 0 -532.5 199.5t-206.5 514.5zM578 686q0 -119 70.5 -192.5t185.5 -73.5q111 0 180 72.5t69 187.5t-71.5 190.5t-180 75.5t-181 -73.5 t-72.5 -186.5z" />
<glyph unicode="P" horiz-adv-x="1366" d="M137 0v1366h656q244 0 391 -137t147 -363q0 -203 -120.5 -328.5t-315.5 -125.5h-274v-412h-484zM621 756h86q66 0 103.5 32.5t37.5 90.5q0 53 -36 82.5t-99 29.5h-92v-235z" />
<glyph unicode="Q" horiz-adv-x="1656" d="M76 676q0 315 211 512.5t546.5 197.5t541.5 -195.5t206 -514.5q0 -121 -27.5 -213t-97.5 -197l201 -223l-387 -162l-99 166q-164 -68 -362 -67q-322 0 -527.5 195.5t-205.5 500.5zM578 692q0 -119 69.5 -196.5t175.5 -77.5q18 0 56 6l-117 125l309 59q8 47 8 76 q0 117 -70.5 190.5t-183.5 73.5q-111 0 -179 -70.5t-68 -185.5z" />
<glyph unicode="R" horiz-adv-x="1456" d="M137 0v1366h617q205 0 327 -78q219 -133 219 -393q0 -154 -77 -254q-49 -61 -187 -104v-13q55 -35 72 -63l307 -461h-571l-197 399q-4 6 -6 15l-4 6q-2 2 -4 10t-4 12l-8 -4v-438h-484zM621 758h67q61 0 96 30.5t35 83.5q0 51 -31.5 85t-80.5 34h-86v-233z" />
<glyph unicode="S" horiz-adv-x="1265" d="M76 104l151 388l54 -41q133 -102 288 -103q53 0 87 22.5t34 57.5q0 53 -90 72l-143 26q-158 29 -246 125.5t-88 239.5q0 213 170 354t426 141q221 0 426 -116l-133 -350q-156 104 -287 104q-49 0 -79 -20.5t-30 -53.5q0 -49 78 -63l160 -33q164 -33 251 -133t87 -254 q0 -248 -213 -385q-164 -102 -375 -102q-266 -1 -528 124z" />
<glyph unicode="T" horiz-adv-x="1069" d="M14 922v444h1043v-444l-275 14v-936h-487v936z" />
<glyph unicode="U" horiz-adv-x="1538" d="M137 504v862h494v-782q0 -176 139 -176q76 0 106.5 39.5t30.5 136.5v782h494v-827q0 -262 -165 -410.5t-456 -148.5q-303 0 -477 141q-78 61 -122 163.5t-44 219.5z" />
<glyph unicode="V" horiz-adv-x="1484" d="M0 1366h518l191 -643q25 -80 30 -182h13q4 100 28 182l187 643h518l-529 -1366h-426z" />
<glyph unicode="W" horiz-adv-x="2148" d="M0 1366h514l150 -647q10 -47 22 -168h12q12 141 35 231l150 584h381l157 -623q14 -66 29 -192h10q14 154 31 219l141 596h516l-481 -1366h-432l-129 557q-20 92 -27 186h-16q-4 -125 -21 -186l-141 -557h-422z" />
<glyph unicode="X" horiz-adv-x="1519" d="M0 0l477 727l-430 639h561l113 -213q8 -16 31 -94h10q16 59 33 94l104 213h561l-428 -639l488 -727h-566l-166 309q-6 14 -18 66h-14q-12 -45 -29 -76l-162 -299h-565z" />
<glyph unicode="Y" horiz-adv-x="1402" d="M-14 1366h561l117 -250q14 -29 36 -108h15q12 51 37 108l106 250h557l-465 -778v-588h-489v588z" />
<glyph unicode="Z" horiz-adv-x="1443" d="M27 0l503 819q47 74 111 146l-4 8q-82 -18 -98 -19h-394v412h1272l-518 -842q-23 -35 -76 -102l4 -8q41 6 95 6l434 2v-422h-1329z" />
<glyph unicode="[" horiz-adv-x="880" d="M150 -395v1888h649v-184h-240v-1520h240v-184h-649z" />
<glyph unicode="\" horiz-adv-x="1116" d="M18 1493h355l772 -1888h-354z" />
<glyph unicode="]" horiz-adv-x="880" d="M82 -211h240v1520h-240v184h649v-1888h-649v184z" />
<glyph unicode="^" horiz-adv-x="935" d="M-37 682l277 694h456l277 -694h-359l-145 416l-145 -416h-361z" />
<glyph unicode="_" horiz-adv-x="1024" d="M0 -94h1024v-240h-1024v240z" />
<glyph unicode="`" horiz-adv-x="1024" d="M193 1370l239 150l238 -299l-178 -113z" />
<glyph unicode="a" horiz-adv-x="1308" d="M57 473q0 217 122 363.5t300 146.5q88 0 150.5 -31.5t126.5 -109.5l10 6q-16 55 -16 104v4h460v-956h-458l6 45q0 18 16 76h-16q-82 -84 -144.5 -116t-146.5 -32q-174 0 -292 143.5t-118 356.5zM520 479q0 -53 35 -92t84 -39q53 0 90 40t37 95q0 57 -34 94t-87 37 q-55 0 -90 -38t-35 -97z" />
<glyph unicode="b" horiz-adv-x="1304" d="M98 0v1493h469l-4 -537q0 -49 -20 -133h16q35 55 70 82q104 78 215 78q88 0 177 -57.5t148 -153.5q78 -127 78 -305q0 -215 -112.5 -354.5t-286.5 -139.5q-139 0 -244 93q-27 23 -61 81l-15 -6q12 -35 13 -61l2 -80h-445zM543 485q0 -68 33.5 -107.5t89.5 -39.5 q53 0 91 42t38 103.5t-36 102.5t-89 41q-57 0 -92 -39.5t-35 -102.5z" />
<glyph unicode="c" horiz-adv-x="909" d="M57 475q0 258 189 404q137 104 301 104q152 0 299 -49v-389q-94 76 -174 76q-61 0 -101.5 -39t-40.5 -98.5t40 -100.5t98 -41q92 0 184 76l-21 -395q-117 -49 -245 -50q-240 0 -384.5 137.5t-144.5 364.5z" />
<glyph unicode="d" horiz-adv-x="1304" d="M57 475q0 215 115 361.5t285 146.5q125 0 225 -84q31 -27 63 -70h15q-18 94 -19 140v524h465v-1493h-450q-2 18 -2 43q0 43 16 109l-14 2q-33 -57 -66 -88q-113 -92 -244 -93q-164 0 -276.5 145.5t-112.5 356.5zM510 493.5q0 -63.5 37 -107.5t90 -44t88 40t35 103 q0 66 -35 109t-88 43q-57 0 -92 -40t-35 -103.5z" />
<glyph unicode="e" horiz-adv-x="1255" d="M57 469q0 225 158 369.5t403 144.5q362 0 517 -287q63 -119 63 -247v-48h-678q2 -86 26.5 -124.5t80.5 -38.5q72 0 98 79h455q-20 -63 -44 -100t-73 -84q-166 -160 -428 -160q-260 0 -419 136.5t-159 359.5zM524 600h219q-12 123 -114 123q-97 0 -105 -123z" />
<glyph unicode="f" horiz-adv-x="778" d="M16 586v370l127 -12v150q0 201 106.5 307t305.5 106q86 0 211 -20l-4 -371q-41 16 -62 17q-41 0 -69.5 -27t-28.5 -66v-100l158 16v-370l-152 14v-600h-465v600z" />
<glyph unicode="g" horiz-adv-x="1300" d="M57 483q0 209 119 355.5t287 146.5q150 0 239 -100l48 -60h10q-12 57 -12 90q0 23 2 41h452v-921q0 -225 -176 -364.5t-463 -139.5q-209 0 -383 61l-82 29l105 324q76 -59 145 -82q104 -35 187 -35q84 0 145 54.5t70 135.5l10 121h-10q-25 -45 -52 -71q-94 -84 -231 -84 q-195 0 -313 174q-97 139 -97 325zM510 479q0 -57 38 -96t93 -39q57 0 90 36t33 95q0 63 -34 102t-87 39q-57 0 -95 -39t-38 -98z" />
<glyph unicode="h" horiz-adv-x="1280" d="M98 0v1493h465v-537q0 -41 -16 -149l8 -6q90 104 155.5 143t153.5 39q135 0 226 -94q92 -94 92 -277v-612h-457v518q0 43 -19.5 67.5t-54.5 24.5q-39 0 -63.5 -25.5t-24.5 -66.5v-518h-465z" />
<glyph unicode="i" horiz-adv-x="661" d="M72 1253q0 102 68.5 165t181.5 63q121 0 192.5 -62.5t71.5 -167.5q0 -100 -68.5 -160.5t-183.5 -60.5q-119 0 -190.5 61.5t-71.5 161.5zM98 0v956h465v-956h-465z" />
<glyph unicode="j" horiz-adv-x="661" d="M72 1253q0 102 68.5 165t181.5 63q121 0 192.5 -62.5t71.5 -167.5q0 -100 -68.5 -160.5t-183.5 -60.5q-119 0 -190.5 61.5t-71.5 161.5zM98 -395v1351h465v-1351h-465z" />
<glyph unicode="k" horiz-adv-x="1323" d="M98 0v1493h465v-889h10q14 25 15 33l14 31l156 288h545l-328 -430v-2q-2 -2 -5 -6l-6 -8l-8 -9q-4 -5 -8 -9q92 -106 101 -119l270 -373h-549l-176 305q-6 12 -10 23l-13 24h-8v-352h-465z" />
<glyph unicode="l" horiz-adv-x="661" d="M98 0v1493h465v-1493h-465z" />
<glyph unicode="m" horiz-adv-x="1820" d="M98 0v956h439l-2 -79q0 -29 -15 -80l15 -4q78 190 282 190q109 0 184 -63q51 -41 89 -142h12q51 113 115.5 159t171.5 46q152 0 242.5 -99.5t90.5 -262.5v-621h-450v526q0 39 -18.5 63.5t-47.5 24.5q-31 0 -51 -24.5t-20 -63.5v-526h-451v539q0 76 -63 75q-72 0 -72 -104 v-510h-451z" />
<glyph unicode="n" horiz-adv-x="1288" d="M98 0v956h455l-4 -59q-2 -37 -14 -88l12 -2q31 35 92 96q90 80 215 80q156 0 258 -115q78 -88 78 -254v-614h-465v498q0 63 -17.5 89.5t-58.5 26.5q-86 0 -86 -116v-498h-465z" />
<glyph unicode="o" horiz-adv-x="1282" d="M57 475q0 227 161 367.5t423 140.5t423 -141.5t161 -372.5q0 -223 -164 -359.5t-430 -136.5q-250 0 -412 142.5t-162 359.5zM510 479.5q0 -59.5 37 -98.5t92 -39q61 0 97 37t36 96q0 63 -36 101t-93 38t-95 -37.5t-38 -97z" />
<glyph unicode="p" horiz-adv-x="1304" d="M98 -395v1351h445l-2 -79q0 -27 -13 -62l15 -6q37 61 71 90q102 84 234 84q174 0 286.5 -139t112.5 -357q0 -205 -104 -344q-59 -78 -140 -124t-159 -46q-123 0 -226 86q-25 20 -59 72h-16q20 -90 20 -131l4 -395h-469zM543 471q0 -63 34.5 -103t88.5 -40q55 0 92 40 t37 103.5t-38 105t-91 41.5q-55 0 -89 -40.5t-34 -106.5z" />
<glyph unicode="q" horiz-adv-x="1308" d="M57 481q0 213 113 357.5t279 144.5q143 0 256 -102q29 -29 55 -78l14 2q-16 66 -16 108q0 25 2 43h450v-1351h-465v383q0 45 19 139h-14q-45 -57 -74 -78q-98 -76 -215 -76q-170 0 -287 146.5t-117 361.5zM510 463q0 -61 36 -102.5t89 -41.5q57 0 93 42t36 108 q0 63 -35 104t-90 41q-53 0 -91 -44t-38 -107z" />
<glyph unicode="r" horiz-adv-x="907" d="M98 0v956h469l-4 -65l-2 -4q0 -4 -1 -10.5t-1 -12.5q0 -2 -4 -30h8q63 96 131 128.5t189 32.5h10v-487q-88 55 -145 55q-80 0 -132.5 -48t-52.5 -124v-391h-465z" />
<glyph unicode="s" horiz-adv-x="997" d="M47 80l121 291l63 -41q37 -23 101.5 -44.5t97.5 -21.5t53.5 15.5t20.5 39.5q0 18 -14.5 34t-34.5 18l-103 16q-86 12 -162 74q-82 63 -81 188q0 147 125.5 240.5t324.5 93.5q209 0 371 -82l-113 -266q-123 82 -213 82q-70 0 -69 -51q0 -33 67 -48l94 -20 q256 -55 256 -268q0 -158 -129 -257.5t-334 -99.5q-186 1 -442 107z" />
<glyph unicode="t" horiz-adv-x="751" d="M16 590v366l117 -8v348h465v-348l158 8v-366l-158 8v-598h-465v598z" />
<glyph unicode="u" horiz-adv-x="1286" d="M98 391v565h465v-518q0 -96 80 -96q37 0 58.5 25.5t21.5 70.5v518h465v-550q0 -213 -189 -332q-154 -100 -360 -101q-133 0 -252 46.5t-197 127.5q-92 97 -92 244z" />
<glyph unicode="v" horiz-adv-x="1220" d="M-20 956h501l105 -352q8 -29 18 -98h14q4 53 17 98l106 352h500l-416 -956h-424z" />
<glyph unicode="w" horiz-adv-x="1730" d="M-20 956h491l92 -391q8 -41 19 -137h14q4 80 18 137l99 391h305l102 -391q8 -31 23 -137h12q8 88 19 137l88 391h489l-393 -956h-377l-92 346q-8 33 -15 78h-12l-16 -78l-94 -346h-383z" />
<glyph unicode="x" horiz-adv-x="1323" d="M-4 0l403 498l-364 458h536l70 -135q14 -27 21 -61h12q10 41 22 61l70 135h534l-362 -458l389 -498h-549l-86 156l-2 4q-2 6 -5 12t-5 12q0 6 -8 27h-10q-12 -45 -19 -55l-84 -156h-563z" />
<glyph unicode="y" horiz-adv-x="1230" d="M-20 956h501l115 -393q16 -49 20 -125h13q8 92 18 125l113 393h491l-616 -1351h-494l250 491z" />
<glyph unicode="z" horiz-adv-x="1124" d="M43 0v63l295 451q20 29 84 90v6q-45 -12 -84 -12h-248v358h989v-49l-299 -442l-16 -25q-8 -12 -13.5 -18t-5.5 -8q-10 -14 -51 -52v-10q47 10 72 10h289v-362h-1012z" />
<glyph unicode="{" horiz-adv-x="854" d="M109 446v226q61 14 86 49q27 35 26 106v379q0 160 72 227.5t239 67.5q80 0 261 -4v-235q-14 2 -31 2h-12q-109 0 -134.5 -23.5t-25.5 -118.5v-313q0 -104 -24.5 -155.5t-98.5 -104.5q70 -45 96.5 -100.5t26.5 -157.5v-314q0 -96 25.5 -118.5t136.5 -22.5h41v-233 q-35 -2 -68 -2l-66 -2q-12 0 -38.5 -1t-40.5 -1q-121 0 -180.5 14t-104.5 53q-74 68 -74 230v376q0 84 -25.5 124t-86.5 52z" />
<glyph unicode="|" horiz-adv-x="1024" d="M303 -342v1708h416v-1708h-416z" />
<glyph unicode="}" horiz-adv-x="854" d="M61 -164h43q109 0 135.5 22.5t26.5 118.5v314q0 104 24.5 155.5t98.5 102.5q-70 45 -96.5 101.5t-26.5 158.5v313q0 96 -26.5 119t-137.5 23q-23 0 -41 -2v235l136 4q14 0 40.5 1t38.5 1q121 0 180.5 -14t104.5 -53q74 -68 74 -230v-379q0 -84 25.5 -123.5t84.5 -52.5 v-225q-61 -12 -83 -47q-27 -39 -27 -109v-376q0 -162 -70.5 -228.5t-240.5 -66.5q-37 0 -263 4v233z" />
<glyph unicode="~" horiz-adv-x="1366" d="M184 1255q63 166 140 241t186 75q39 0 85 -13.5t210 -74.5q37 -14 65 -15q33 0 57.5 24t57.5 83l197 -166q-66 -158 -133 -231q-82 -82 -193 -82q-59 0 -227 63q-104 39 -135 39q-57 0 -113 -108z" />
<glyph unicode="&#xa1;" horiz-adv-x="839" d="M150 850q0 98 81.5 166.5t196.5 68.5q111 0 186.5 -67.5t75.5 -165.5t-75.5 -162.5t-194.5 -64.5q-115 0 -192.5 65.5t-77.5 159.5zM184 -395v930h478v-930h-478z" />
<glyph unicode="&#xa2;" d="M297 711q0 176 106.5 307t280.5 168v188h211v-186q90 -10 170 -35l8 -381q-100 72 -176 72q-59 0 -97 -36t-38 -93q0 -61 38 -100.5t99 -39.5q82 0 176 76l-4 -383q-106 -33 -176 -41v-219h-211v221q-168 20 -277.5 157t-109.5 325z" />
<glyph unicode="&#xa3;" d="M104 262q119 53 163 68.5t120 29.5q27 57 51 152h-170v256h170q-29 205 -28 240q0 174 123.5 280.5t326.5 106.5q186 0 297 -95q53 -45 75.5 -101t31.5 -161l-308 -61q-2 78 -26 96q-18 18 -51 19q-39 0 -63.5 -32t-24.5 -79q0 -16 4 -53l8 -68q2 -16 4 -29.5t3 -19.5 t2 -11t1 -12q0 -12 -2 -20h270v-256h-282q-6 -70 -60 -176q18 -4 37 -10l51 -19q55 -18 109 -18q86 0 178 71l135 -251q-227 -135 -393 -136q-96 0 -190 27l-150 41q-27 8 -67 8q-45 0 -77 -9t-163 -60z" />
<glyph unicode="&#xa4;" horiz-adv-x="1503" d="M55 219l217 217q-61 123 -61 254q0 133 70 266l-224 222l211 213l228 -228q131 61 256 62q127 0 252 -60l225 221l209 -208l-217 -217q74 -133 73 -271q0 -125 -63 -252l215 -217l-207 -211l-215 215q-129 -74 -274 -73q-127 0 -271 71l-215 -211zM569 694 q0 -78 53.5 -132t129 -54t130 54t54.5 132q0 76 -53.5 130.5t-128.5 54.5q-78 0 -131.5 -54.5t-53.5 -130.5z" />
<glyph unicode="&#xa5;" d="M37 1366h561l133 -371l125 371h555l-244 -436h185v-242h-320l-57 -100v-74h377v-242h-377v-272h-490v272h-389v242h389v74l-57 100h-332v242h191z" />
<glyph unicode="&#xa6;" horiz-adv-x="1024" d="M303 313h416v-655h-416v655zM303 621v745h416v-745h-416z" />
<glyph unicode="&#xa7;" d="M176 -4h379q14 -78 47 -110.5t98 -32.5q125 0 125 112q0 72 -53 103q-35 20 -184 59q-180 49 -244 90q-154 100 -154 299q0 203 177 326q-143 104 -144 278q0 182 143.5 284.5t397.5 102.5q457 0 496 -422h-365q-12 90 -42 123t-99 33q-63 0 -98 -26.5t-35 -73.5 q0 -66 69 -97q39 -18 201 -65q143 -41 221 -88q162 -98 162 -301q0 -197 -189 -322q139 -111 140 -291q0 -190 -128 -288.5t-376 -98.5q-512 0 -545 406zM594 555q0 -57 39 -96t94 -39t95 40t40 95q0 53 -39 93t-92 40q-57 0 -97 -39t-40 -94z" />
<glyph unicode="&#xa8;" horiz-adv-x="1024" d="M135 1286q0 66 47 112t110.5 46t111 -46t47.5 -111.5t-47.5 -112t-112.5 -46.5q-63 0 -109.5 47.5t-46.5 110.5zM571 1286q0 66 46.5 112t112 46t111.5 -46t46 -111.5t-47 -112t-113 -46.5q-63 0 -109.5 47.5t-46.5 110.5z" />
<glyph unicode="&#xa9;" horiz-adv-x="1556" d="M68 682q0 299 208.5 507t511.5 208q287 0 493 -211t206 -504q0 -295 -208 -504t-501 -209t-501.5 210t-208.5 503zM229 682q0 -233 162 -399t387.5 -166t385 166t159.5 399q0 231 -158.5 398t-380.5 167q-231 0 -393 -164.5t-162 -400.5zM381 676q0 178 128 303t310 125 q113 0 225 -35l7 -328q-66 49 -103 65.5t-82 16.5q-61 0 -104 -41t-43 -98q0 -59 44 -101t107 -42q49 0 83 15t98 65l-7 -324q-88 -37 -231 -37q-182 0 -307 121t-125 295z" />
<glyph unicode="&#xaa;" horiz-adv-x="743" d="M35 1075q0 123 69.5 207t171.5 84q78 0 158 -80q0 14 -2 17l-2 14q-2 6 -2 26v7h262v-545h-260l2 26q6 31 10 43h-10q-47 -49 -82 -66t-82 -17q-100 0 -166.5 81.5t-66.5 202.5zM299 1077q0 -31 19.5 -52t48 -21t50 22.5t21.5 52.5q0 33 -19.5 53.5t-47.5 20.5 q-31 0 -51.5 -21.5t-20.5 -54.5z" />
<glyph unicode="&#xab;" horiz-adv-x="1093" d="M68 492l301 423l188 -131l-207 -292l207 -306l-188 -131zM518 492l301 423l189 -131l-207 -292l207 -306l-189 -131z" />
<glyph unicode="&#xac;" horiz-adv-x="1024" d="M68 252v362h886v-614h-403v252h-483z" />
<glyph unicode="&#xad;" horiz-adv-x="645" d="M0 307v371h645v-371h-645z" />
<glyph unicode="&#xae;" horiz-adv-x="1556" d="M68 682q0 299 208.5 507t511.5 208q287 0 493 -211t206 -504q0 -295 -208 -504t-501 -209t-501.5 210t-208.5 503zM229 682q0 -233 162 -399t387.5 -166t385 166t159.5 399q0 231 -158.5 398t-380.5 167q-231 0 -393 -164.5t-162 -400.5zM424 313v738h336q117 0 190 -43 q127 -72 127 -213q0 -135 -108 -185l-27 -12l211 -285h-350l-105 201v-201h-274zM698 723h25q74 0 74 57q0 27 -17.5 45.5t-46.5 18.5h-35v-121z" />
<glyph unicode="&#xaf;" horiz-adv-x="1024" d="M164 1143v178h696v-178h-696z" />
<glyph unicode="&#xb0;" d="M451 1116q0 111 80.5 190.5t191.5 79.5q113 0 193.5 -79.5t80.5 -192.5t-79.5 -193.5t-192.5 -80.5q-115 0 -194.5 80.5t-79.5 195.5zM606 1116q0 -49 35 -84t82 -35t82 35t35 82t-35 82t-82 35t-82 -34t-35 -81z" />
<glyph unicode="&#xb1;" d="M211 -123v287h1024v-287h-1024zM211 545v301h362v348h301v-348h361v-301h-361v-305h-301v305h-362z" />
<glyph unicode="&#xb2;" horiz-adv-x="983" d="M-4 547l27 22q14 12 22 21l10 6l62 49l243 199q186 154 187 225q0 29 -21.5 47.5t-54.5 18.5q-72 0 -78 -105h-315q8 104 31.5 161.5t76.5 98.5q113 88 297 88q166 0 273.5 -82t107.5 -209q0 -209 -311 -311v-8q115 25 324 29v-250h-881z" />
<glyph unicode="&#xb3;" horiz-adv-x="983" d="M76 834h325q2 -45 28 -70t67 -25q35 0 60.5 23.5t25.5 54.5t-25 53.5t-59 22.5q-18 0 -43 -6v172q10 -2 26 -2q27 0 46.5 17.5t19.5 41.5q0 23 -17.5 39t-42 16t-42 -17t-17.5 -40v-6h-315q18 139 110 204.5t269 65.5q168 0 262 -63q106 -72 106 -172q0 -98 -108 -160 q61 -23 92 -53q55 -55 55 -133q0 -66 -40 -125.5t-105 -91.5q-98 -47 -258 -48q-207 0 -316 86q-88 69 -104 216z" />
<glyph unicode="&#xb4;" horiz-adv-x="1024" d="M369 1221l237 299l240 -150l-301 -262z" />
<glyph unicode="&#xb5;" horiz-adv-x="1286" d="M98 -395v1351h465v-518q0 -96 80 -96q37 0 58.5 25.5t21.5 70.5v518h465v-550q0 -215 -189 -332q-158 -100 -350 -101q-86 0 -186 31l100 -399h-465z" />
<glyph unicode="&#xb6;" d="M137 1020q0 207 154 293q96 53 278 53h768v-272h-149v-1282h-266v1282h-170v-1282h-267v874q-162 -2 -255 87t-93 247z" />
<glyph unicode="&#xb7;" horiz-adv-x="727" d="M94 496q0 92 79 157.5t191.5 65.5t190.5 -66.5t78 -161t-78 -161t-190 -66.5q-115 0 -193 67t-78 165z" />
<glyph unicode="&#xb8;" horiz-adv-x="1024" d="M324 -354l286 266l174 -148l-278 -276z" />
<glyph unicode="&#xb9;" horiz-adv-x="983" d="M244 1094v260l456 12v-819h-319v557z" />
<glyph unicode="&#xba;" horiz-adv-x="731" d="M33 1077q0 129 92 209t241.5 80t240.5 -81t91 -212q0 -127 -93 -204.5t-245 -77.5q-141 0 -234 80.5t-93 205.5zM293 1077q0 -33 20.5 -54.5t51.5 -21.5q33 0 53 20.5t20 55.5t-19.5 56.5t-52 21.5t-53 -21.5t-20.5 -56.5z" />
<glyph unicode="&#xbb;" horiz-adv-x="1093" d="M86 186l207 306l-207 292l188 131l301 -423l-301 -437zM537 186l206 306l-206 292l188 131l301 -423l-301 -437z" />
<glyph unicode="&#xbc;" horiz-adv-x="2230" d="M244 1094v260l456 12v-819h-319v557zM698 35l684 1370l150 -74l-684 -1370zM1311 156v215l362 448h381v-440l113 6v-229l-121 8l8 -164h-305l10 164zM1606 373l155 6l4 135q0 20 9 53l-7 4q-18 -31 -41 -57l-84 -98l-14 -21z" />
<glyph unicode="&#xbd;" horiz-adv-x="2230" d="M244 1094v260l456 12v-819h-319v557zM698 35l684 1370l150 -74l-684 -1370zM1243 0l27 23q14 12 22 18t11 8l305 250q186 156 186 223q0 27 -21.5 46.5t-52.5 19.5q-41 0 -59.5 -23.5t-20.5 -79.5h-315q10 104 33.5 162t75.5 98q115 86 297 86q164 0 272 -81.5 t108 -206.5q0 -213 -311 -312v-8q123 23 324 29v-252h-881z" />
<glyph unicode="&#xbe;" horiz-adv-x="2230" d="M76 834h325q2 -45 28 -70t67 -25q35 0 60.5 23.5t25.5 54.5t-25 53.5t-59 22.5q-18 0 -43 -6v172q10 -2 26 -2q27 0 46.5 17.5t19.5 41.5q0 23 -17.5 39t-42 16t-42 -17t-17.5 -40v-6h-315q18 139 110 204.5t269 65.5q168 0 262 -63q106 -72 106 -172q0 -98 -108 -160 q61 -23 92 -53q55 -55 55 -133q0 -66 -40 -125.5t-105 -91.5q-98 -47 -258 -48q-207 0 -316 86q-88 69 -104 216zM698 35l686 1370l148 -74l-684 -1370zM1311 156v215l364 448h381v-440l111 6v-229l-119 8l8 -164h-305l10 164zM1606 373q55 2 67 2l90 4l4 135q0 29 9 53 l-9 4q-18 -35 -38 -57l-87 -98l-14 -21z" />
<glyph unicode="&#xbf;" horiz-adv-x="1261" d="M82 102q0 209 150.5 334t404.5 125q57 0 149 -16v-352q-61 18 -94 18q-70 0 -113.5 -40t-43.5 -103q0 -41 23.5 -66t62.5 -25q82 0 94 113h465q-10 -121 -50 -196q-70 -137 -200.5 -213t-298.5 -76q-240 0 -383 121q-76 63 -121 165t-45 211zM360 879q0 98 77 161.5 t198 63.5q115 0 191.5 -66.5t76.5 -165t-79 -161t-203 -62.5q-113 0 -187 65t-74 165z" />
<glyph unicode="&#xc0;" horiz-adv-x="1509" d="M0 0l473 1366h549l487 -1366h-526l-45 170h-377l-37 -170h-524zM369 1729l288 96l279 -279l-236 -78zM653 494h199l-64 262l-16 78q-4 16 -10 75h-19q-14 -121 -22 -153z" />
<glyph unicode="&#xc1;" horiz-adv-x="1509" d="M0 0l473 1366h549l487 -1366h-526l-45 170h-377l-37 -170h-524zM600 1546l279 279l288 -96l-331 -261zM653 494h199l-64 262l-16 78q-4 16 -10 75h-19q-14 -121 -22 -153z" />
<glyph unicode="&#xc2;" horiz-adv-x="1509" d="M0 0l473 1366h549l487 -1366h-526l-45 170h-377l-37 -170h-524zM340 1681l422 142l422 -142l-47 -213l-375 131l-375 -131zM653 494h199l-64 262l-16 78q-4 16 -10 75h-19q-14 -121 -22 -153z" />
<glyph unicode="&#xc3;" horiz-adv-x="1509" d="M0 0l473 1366h549l487 -1366h-526l-45 170h-377l-37 -170h-524zM346 1563q127 221 303 221q53 0 101 -21l47 -20q59 -27 104 -27q49 0 98 74l207 -59l-30 -50q-113 -180 -297 -180q-43 0 -62 8l-127 45q-31 12 -55 13q-51 2 -94 -82zM653 494h199l-64 262l-16 78 q-4 16 -10 75h-19q-14 -121 -22 -153z" />
<glyph unicode="&#xc4;" horiz-adv-x="1509" d="M0 0l473 1366h549l487 -1366h-526l-45 170h-377l-37 -170h-524zM338 1659q0 74 52 126t126 52t126 -52t52 -126t-52 -126t-128 -52q-72 0 -124 53t-52 125zM653 494h199l-64 262l-16 78q-4 16 -10 75h-19q-14 -121 -22 -153zM829 1659q0 74 52.5 126t126 52t126 -52 t52.5 -126t-52.5 -126t-127.5 -52q-72 0 -124.5 53t-52.5 125z" />
<glyph unicode="&#xc5;" horiz-adv-x="1509" d="M0 0l473 1366h549l487 -1366h-526l-45 170h-377l-37 -170h-524zM508 1692q0 100 68.5 159.5t185.5 59.5t185.5 -59.5t68.5 -161.5q0 -98 -72 -160t-188 -62q-109 0 -178.5 64t-69.5 160zM653 494h199l-64 262l-16 78q-4 16 -10 75h-19q-14 -121 -22 -153zM682 1692 q0 -33 22.5 -55.5t55.5 -22.5t55.5 22.5t22.5 55.5q0 31 -22.5 53t-55.5 22t-55.5 -22t-22.5 -53z" />
<glyph unicode="&#xc6;" horiz-adv-x="1939" d="M14 0l475 1366h961l125 -375h-406l43 -127h408l127 -358h-404l43 -131h410l131 -375h-930l-47 170h-372l-41 -170h-523zM664 494h202l-80 301q-6 27 -16 114h-12q-6 -72 -23 -135z" />
<glyph unicode="&#xc7;" horiz-adv-x="1210" d="M76 672q0 299 204.5 506.5t501.5 207.5q193 0 340 -53l15 -520q-158 137 -289 137q-113 0 -191.5 -76.5t-78.5 -185.5q0 -115 80.5 -192.5t199.5 -77.5q139 0 279 127l-15 -510q-127 -55 -350 -55q-293 0 -494.5 200.5t-201.5 491.5zM487 -334l263 250l168 -160 l-240 -268z" />
<glyph unicode="&#xc8;" horiz-adv-x="1146" d="M137 0v1366h922v-375h-424v-127h385v-358h-385v-131h438v-375h-936zM276 1729l289 96l279 -279l-236 -78z" />
<glyph unicode="&#xc9;" horiz-adv-x="1146" d="M137 0v1366h922v-375h-424v-127h385v-358h-385v-131h438v-375h-936zM440 1546l279 279l289 -96l-332 -261z" />
<glyph unicode="&#xca;" horiz-adv-x="1146" d="M137 0v1366h922v-375h-424v-127h385v-358h-385v-131h438v-375h-936zM176 1681l422 142l422 -142l-47 -213l-375 131l-375 -131z" />
<glyph unicode="&#xcb;" horiz-adv-x="1146" d="M137 0v1366h922v-375h-424v-127h385v-358h-385v-131h438v-375h-936zM174 1659q0 74 52.5 126t126 52t125.5 -52t52 -126t-52 -126t-128 -52q-72 0 -124 53t-52 125zM666 1659q0 74 52 126t126 52t126 -52t52 -126t-52 -126t-128 -52q-72 0 -124 53t-52 125z" />
<glyph unicode="&#xcc;" horiz-adv-x="770" d="M-2 1729l289 96l278 -279l-235 -78zM135 0v1366h498v-1366h-498z" />
<glyph unicode="&#xcd;" horiz-adv-x="770" d="M137 0v1366h498v-1366h-498zM264 1546l279 279l288 -96l-331 -261z" />
<glyph unicode="&#xce;" horiz-adv-x="770" d="M-4 1681l395 142l395 -142l-47 -213l-348 131l-348 -131zM135 0v1366h498v-1366h-498z" />
<glyph unicode="&#xcf;" horiz-adv-x="770" d="M10 1640.5q0 65.5 47 112.5t113 47t113 -47t47 -112.5t-47 -112.5t-115 -47q-63 0 -110.5 47t-47.5 112.5zM135 0v1366h498v-1366h-498zM453 1640.5q0 65.5 47 112.5t112.5 47t112.5 -47t47 -112.5t-47 -112.5t-115 -47q-63 0 -110 47t-47 112.5z" />
<glyph unicode="&#xd0;" horiz-adv-x="1525" d="M14 582v231h123v553h527q371 0 579.5 -184.5t208.5 -509.5q0 -317 -201 -498q-199 -174 -463 -174h-651v582h-123zM631 418h69q113 0 184.5 73.5t71.5 188.5q0 119 -70.5 193.5t-185.5 74.5h-69v-135h149v-231h-149v-164z" />
<glyph unicode="&#xd1;" horiz-adv-x="1640" d="M137 0v1366h475l316 -514q78 -129 129 -244h14q-23 109 -27 153t-8 173l-8 432h475v-1366h-475l-340 539q-43 70 -94 178h-14q27 -166 26 -252l6 -465h-475zM426 1563q127 221 303 221q53 0 100 -21l48 -20q59 -27 104 -27q49 0 98 74l207 -59l-31 -50 q-113 -180 -297 -180q-43 0 -61 8l-127 45q-31 12 -55 13q-51 2 -94 -82z" />
<glyph unicode="&#xd2;" horiz-adv-x="1658" d="M76 694q0 150 64.5 288t178.5 235q203 170 519 169q330 0 538.5 -196.5t208.5 -507.5q0 -309 -215 -505.5t-555 -196.5q-326 0 -532.5 199.5t-206.5 514.5zM444 1729l289 96l279 -279l-236 -78zM578 686q0 -119 70.5 -192.5t185.5 -73.5q111 0 180 72.5t69 187.5 t-71.5 190.5t-180 75.5t-181 -73.5t-72.5 -186.5z" />
<glyph unicode="&#xd3;" horiz-adv-x="1658" d="M76 694q0 150 64.5 288t178.5 235q203 170 519 169q330 0 538.5 -196.5t208.5 -507.5q0 -309 -215 -505.5t-555 -196.5q-326 0 -532.5 199.5t-206.5 514.5zM578 686q0 -119 70.5 -192.5t185.5 -73.5q111 0 180 72.5t69 187.5t-71.5 190.5t-180 75.5t-181 -73.5 t-72.5 -186.5zM702 1546l279 279l289 -96l-332 -261z" />
<glyph unicode="&#xd4;" horiz-adv-x="1658" d="M76 694q0 150 64.5 288t178.5 235q203 170 519 169q330 0 538.5 -196.5t208.5 -507.5q0 -309 -215 -505.5t-555 -196.5q-326 0 -532.5 199.5t-206.5 514.5zM414 1681l422 142l421 -142l-47 -213l-374 131l-375 -131zM578 686q0 -119 70.5 -192.5t185.5 -73.5 q111 0 180 72.5t69 187.5t-71.5 190.5t-180 75.5t-181 -73.5t-72.5 -186.5z" />
<glyph unicode="&#xd5;" horiz-adv-x="1658" d="M76 694q0 150 64.5 288t178.5 235q203 170 519 169q330 0 538.5 -196.5t208.5 -507.5q0 -309 -215 -505.5t-555 -196.5q-326 0 -532.5 199.5t-206.5 514.5zM442 1563q127 221 303 221q53 0 101 -21l47 -20q59 -27 104 -27q49 0 99 74l207 -59l-31 -50 q-113 -180 -297 -180q-43 0 -62 8l-127 45q-31 12 -55 13q-51 2 -94 -82zM578 686q0 -119 70.5 -192.5t185.5 -73.5q111 0 180 72.5t69 187.5t-71.5 190.5t-180 75.5t-181 -73.5t-72.5 -186.5z" />
<glyph unicode="&#xd6;" horiz-adv-x="1658" d="M76 694q0 150 64.5 288t178.5 235q203 170 519 169q330 0 538.5 -196.5t208.5 -507.5q0 -309 -215 -505.5t-555 -196.5q-326 0 -532.5 199.5t-206.5 514.5zM414 1659q0 74 52 126t126 52t126 -52t52 -126t-52 -126t-128 -52q-72 0 -124 53t-52 125zM578 686 q0 -119 70.5 -192.5t185.5 -73.5q111 0 180 72.5t69 187.5t-71.5 190.5t-180 75.5t-181 -73.5t-72.5 -186.5zM905 1659q0 74 52.5 126t126 52t126 -52t52.5 -126t-52.5 -126t-128.5 -52q-72 0 -124 53t-52 125z" />
<glyph unicode="&#xd7;" d="M246 422l274 274l-274 275l203 203l274 -275l276 275l203 -203l-276 -275l276 -274l-203 -203l-276 275l-274 -275z" />
<glyph unicode="&#xd8;" horiz-adv-x="1658" d="M27 96l180 176q-131 174 -131 408q0 309 213 507.5t547 198.5q209 0 374 -81l72 -37l182 168l168 -183l-174 -163q125 -166 125 -408q0 -309 -215 -505.5t-551 -196.5q-190 0 -356 75q-4 2 -23.5 10.5t-56.5 26.5l-191 -176zM578 686q0 -119 70.5 -192.5t183 -73.5 t181 72.5t68.5 187.5t-70.5 190.5t-179 75.5t-181 -73.5t-72.5 -186.5z" />
<glyph unicode="&#xd9;" horiz-adv-x="1538" d="M137 504v862h494v-782q0 -176 139 -176q76 0 106.5 39.5t30.5 136.5v782h494v-827q0 -262 -165 -410.5t-456 -148.5q-303 0 -477 141q-78 61 -122 163.5t-44 219.5zM377 1729l289 96l278 -279l-235 -78z" />
<glyph unicode="&#xda;" horiz-adv-x="1538" d="M137 504v862h494v-782q0 -176 139 -176q76 0 106.5 39.5t30.5 136.5v782h494v-827q0 -262 -165 -410.5t-456 -148.5q-303 0 -477 141q-78 61 -122 163.5t-44 219.5zM614 1546l279 279l289 -96l-332 -261z" />
<glyph unicode="&#xdb;" horiz-adv-x="1538" d="M137 504v862h494v-782q0 -176 139 -176q76 0 106.5 39.5t30.5 136.5v782h494v-827q0 -262 -165 -410.5t-456 -148.5q-303 0 -477 141q-78 61 -122 163.5t-44 219.5zM360 1681l422 142l422 -142l-47 -213l-375 131l-374 -131z" />
<glyph unicode="&#xdc;" horiz-adv-x="1538" d="M137 504v862h494v-782q0 -176 139 -176q76 0 106.5 39.5t30.5 136.5v782h494v-827q0 -262 -165 -410.5t-456 -148.5q-303 0 -477 141q-78 61 -122 163.5t-44 219.5zM352 1659q0 74 52.5 126t126 52t126 -52t52.5 -126t-52.5 -126t-128.5 -52q-72 0 -124 53t-52 125z M844 1659q0 74 52 126t126 52t126 -52t52 -126t-52 -126t-128 -52q-72 0 -124 53t-52 125z" />
<glyph unicode="&#xdd;" horiz-adv-x="1402" d="M-14 1366h561l117 -250q14 -29 36 -108h15q12 51 37 108l106 250h557l-465 -778v-588h-489v588zM553 1546l278 279l289 -96l-332 -261z" />
<glyph unicode="&#xde;" horiz-adv-x="1366" d="M137 0v1366h484v-178h172q244 0 391 -137.5t147 -362.5q0 -203 -120.5 -329t-315.5 -126h-274v-233h-484zM621 578h86q66 0 103.5 32.5t37.5 89.5q0 53 -36 83t-99 30h-92v-235z" />
<glyph unicode="&#xdf;" horiz-adv-x="1316" d="M98 2v975q0 162 24.5 250t84.5 145q63 61 192 103.5t250 42.5q131 0 243 -40t171 -110q92 -102 92 -235q0 -100 -31.5 -161t-117.5 -122q98 -43 145 -96q111 -123 111 -310q0 -227 -154 -340q-147 -104 -363 -104q-41 0 -73 2v264q63 12 91 55.5t28 127.5 q0 121 -25 165.5t-94 53.5v262q51 2 79.5 27.5t28.5 68.5q0 41 -29.5 67.5t-74.5 26.5q-72 0 -98 -61q-14 -33 -15 -139v-918h-465z" />
<glyph unicode="&#xe0;" horiz-adv-x="1308" d="M57 473q0 217 122 363.5t300 146.5q88 0 150.5 -31.5t126.5 -109.5l10 6q-16 55 -16 104v4h460v-956h-458l6 45q0 18 16 76h-16q-82 -84 -144.5 -116t-146.5 -32q-174 0 -292 143.5t-118 356.5zM360 1370l240 150l238 -299l-179 -113zM520 479q0 -53 35 -92t84 -39 q53 0 90 40t37 95q0 57 -34 94t-87 37q-55 0 -90 -38t-35 -97z" />
<glyph unicode="&#xe1;" horiz-adv-x="1308" d="M57 473q0 217 122 363.5t300 146.5q88 0 150.5 -31.5t126.5 -109.5l10 6q-16 55 -16 104v4h460v-956h-458l6 45q0 18 16 76h-16q-82 -84 -144.5 -116t-146.5 -32q-174 0 -292 143.5t-118 356.5zM520 479q0 -53 35 -92t84 -39q53 0 90 40t37 95q0 57 -34 94t-87 37 q-55 0 -90 -38t-35 -97zM537 1221l237 299l240 -150l-301 -262z" />
<glyph unicode="&#xe2;" horiz-adv-x="1308" d="M57 473q0 217 122 363.5t300 146.5q88 0 150.5 -31.5t126.5 -109.5l10 6q-16 55 -16 104v4h460v-956h-458l6 45q0 18 16 76h-16q-82 -84 -144.5 -116t-146.5 -32q-174 0 -292 143.5t-118 356.5zM266 1294l400 207l391 -211l-94 -182l-297 147l-304 -143zM520 479 q0 -53 35 -92t84 -39q53 0 90 40t37 95q0 57 -34 94t-87 37q-55 0 -90 -38t-35 -97z" />
<glyph unicode="&#xe3;" horiz-adv-x="1308" d="M57 473q0 217 122 363.5t300 146.5q88 0 150.5 -31.5t126.5 -109.5l10 6q-16 55 -16 104v4h460v-956h-458l6 45q0 18 16 76h-16q-82 -84 -144.5 -116t-146.5 -32q-174 0 -292 143.5t-118 356.5zM293 1235q129 186 276 186q66 0 103 -20l67 -37q41 -23 76 -23 q25 0 43.5 13.5t59.5 60.5l180 -82q-115 -201 -267 -200q-53 0 -92 14l-133 53q-39 14 -55 14q-49 0 -102 -77zM520 479q0 -53 35 -92t84 -39q53 0 90 40t37 95q0 57 -34 94t-87 37q-55 0 -90 -38t-35 -97z" />
<glyph unicode="&#xe4;" horiz-adv-x="1308" d="M57 473q0 217 122 363.5t300 146.5q88 0 150.5 -31.5t126.5 -109.5l10 6q-16 55 -16 104v4h460v-956h-458l6 45q0 18 16 76h-16q-82 -84 -144.5 -116t-146.5 -32q-174 0 -292 143.5t-118 356.5zM291 1286q0 66 47 112t110.5 46t110.5 -46t47 -111.5t-47 -112t-113 -46.5 q-63 0 -109 47.5t-46 110.5zM520 479q0 -53 35 -92t84 -39q53 0 90 40t37 95q0 57 -34 94t-87 37q-55 0 -90 -38t-35 -97zM727 1286q0 66 46 112t111.5 46t111.5 -46t46 -111.5t-47 -112t-112 -46.5q-63 0 -109.5 47.5t-46.5 110.5z" />
<glyph unicode="&#xe5;" horiz-adv-x="1308" d="M57 473q0 217 122 363.5t300 146.5q88 0 150.5 -31.5t126.5 -109.5l10 6q-16 55 -16 104v4h460v-956h-458l6 45q0 18 16 76h-16q-82 -84 -144.5 -116t-146.5 -32q-174 0 -292 143.5t-118 356.5zM428 1331q0 90 62.5 145.5t166.5 55.5q106 0 171 -55.5t65 -147.5 t-65.5 -148.5t-172.5 -56.5q-100 0 -163.5 58.5t-63.5 148.5zM520 479q0 -53 35 -92t84 -39q53 0 90 40t37 95q0 57 -34 94t-87 37q-55 0 -90 -38t-35 -97zM580 1329q0 -33 23.5 -57.5t56 -24.5t56 24.5t23.5 57.5t-23.5 56.5t-56 23.5t-56 -23.5t-23.5 -56.5z" />
<glyph unicode="&#xe6;" horiz-adv-x="2056" d="M57 313q0 150 117 237t315 87q115 0 283 -45q-2 76 -29 106q-51 72 -202 72q-168 0 -445 -92v231q174 45 261 59.5t198 14.5q158 0 247 -35t181 -133q113 94 207 131t227 37q195 0 333 -82t204 -237q43 -98 45 -256h-682v-15q0 -147 108 -147q80 0 95 76h454 q-39 -125 -127 -199q-174 -150 -417 -150q-172 0 -328 76q-51 25 -119 88q-119 -88 -229.5 -127t-245.5 -39q-201 0 -326 94t-125 248zM485 309q0 -94 162 -94q94 0 160.5 30.5t66.5 76.5q0 39 -59 63.5t-153 24.5q-177 -1 -177 -101zM1323 606h219q0 51 -32.5 87t-80 36 t-76 -34t-30.5 -89z" />
<glyph unicode="&#xe7;" horiz-adv-x="909" d="M57 475q0 258 189 404q137 104 301 104q152 0 299 -49v-389q-94 76 -174 76q-61 0 -101.5 -39t-40.5 -98.5t40 -100.5t98 -41q92 0 184 76l-21 -395q-117 -49 -245 -50q-240 0 -384.5 137.5t-144.5 364.5zM246 -354l286 266l175 -148l-279 -276z" />
<glyph unicode="&#xe8;" horiz-adv-x="1255" d="M57 469q0 225 158 369.5t403 144.5q362 0 517 -287q63 -119 63 -247v-48h-678q2 -86 26.5 -124.5t80.5 -38.5q72 0 98 79h455q-20 -63 -44 -100t-73 -84q-166 -160 -428 -160q-260 0 -419 136.5t-159 359.5zM307 1370l240 150l237 -299l-178 -113zM524 600h219 q-12 123 -114 123q-97 0 -105 -123z" />
<glyph unicode="&#xe9;" horiz-adv-x="1255" d="M57 469q0 225 158 369.5t403 144.5q362 0 517 -287q63 -119 63 -247v-48h-678q2 -86 26.5 -124.5t80.5 -38.5q72 0 98 79h455q-20 -63 -44 -100t-73 -84q-166 -160 -428 -160q-260 0 -419 136.5t-159 359.5zM518 1221l238 299l239 -150l-301 -262zM524 600h219 q-12 123 -114 123q-97 0 -105 -123z" />
<glyph unicode="&#xea;" horiz-adv-x="1255" d="M57 469q0 225 158 369.5t403 144.5q362 0 517 -287q63 -119 63 -247v-48h-678q2 -86 26.5 -124.5t80.5 -38.5q72 0 98 79h455q-20 -63 -44 -100t-73 -84q-166 -160 -428 -160q-260 0 -419 136.5t-159 359.5zM225 1294l400 207l391 -211l-94 -182l-297 147l-303 -143z M524 600h219q-12 123 -114 123q-97 0 -105 -123z" />
<glyph unicode="&#xeb;" horiz-adv-x="1255" d="M57 469q0 225 158 369.5t403 144.5q362 0 517 -287q63 -119 63 -247v-48h-678q2 -86 26.5 -124.5t80.5 -38.5q72 0 98 79h455q-20 -63 -44 -100t-73 -84q-166 -160 -428 -160q-260 0 -419 136.5t-159 359.5zM258 1286q0 66 47 112t110.5 46t110.5 -46t47 -111.5t-47 -112 t-112 -46.5q-63 0 -109.5 47.5t-46.5 110.5zM524 600h219q-12 123 -114 123q-97 0 -105 -123zM694 1286q0 66 46 112t112 46t112 -46t46 -111.5t-47.5 -112t-112.5 -46.5q-63 0 -109.5 47.5t-46.5 110.5z" />
<glyph unicode="&#xec;" horiz-adv-x="661" d="M-8 1370l239 150l238 -299l-178 -113zM98 0v956h465v-956h-465z" />
<glyph unicode="&#xed;" horiz-adv-x="661" d="M98 0v956h465v-956h-465zM227 1221l238 299l240 -150l-302 -262z" />
<glyph unicode="&#xee;" horiz-adv-x="661" d="M-16 1294l358 207l350 -211l-94 -182l-256 147l-262 -143zM100 0v956h465v-956h-465z" />
<glyph unicode="&#xef;" horiz-adv-x="661" d="M-6 1278q0 63 44 107.5t107 44.5q61 0 105.5 -44.5t44.5 -105.5q0 -63 -44 -107.5t-108 -44.5q-61 0 -105 45.5t-44 104.5zM98 0v956h465v-956h-465zM381 1278q0 63 44 107.5t107 44.5q61 0 105.5 -44.5t44.5 -105.5q0 -63 -44 -107.5t-108 -44.5q-61 0 -105 45.5 t-44 104.5z" />
<glyph unicode="&#xf0;" horiz-adv-x="1286" d="M57 479q0 219 149.5 344t418.5 133q-55 100 -162 181l-260 -162l-101 186l142 90q-18 6 -56 15q-4 2 -45 10l-39 6q-18 2 -36 6l98 201q84 -4 206 -26.5t150 -39.5l264 168l123 -174l-157 -100q162 -113 254 -225q104 -127 163.5 -286t59.5 -310q0 -256 -172 -390 q-170 -133 -418 -133q-240 0 -412 136q-170 134 -170 370zM510 479.5q0 -59.5 36 -98.5t91 -39q59 0 95 37t36 98.5t-36 100t-91 38.5q-57 0 -94 -38.5t-37 -98z" />
<glyph unicode="&#xf1;" horiz-adv-x="1288" d="M98 0v956h455l-4 -59q-2 -37 -14 -88l12 -2q31 35 92 96q90 80 215 80q156 0 258 -115q78 -88 78 -254v-614h-465v498q0 63 -17.5 89.5t-58.5 26.5q-86 0 -86 -116v-498h-465zM276 1235q129 186 277 186q66 0 102 -20l68 -37q41 -23 76 -23q25 0 43 13.5t59 60.5l180 -82 q-115 -201 -266 -200q-53 0 -92 14l-133 53q-39 14 -55 14q-49 0 -103 -77z" />
<glyph unicode="&#xf2;" horiz-adv-x="1282" d="M57 475q0 227 161 367.5t423 140.5t423 -141.5t161 -372.5q0 -223 -164 -359.5t-430 -136.5q-250 0 -412 142.5t-162 359.5zM307 1370l240 150l237 -299l-178 -113zM510 479.5q0 -59.5 37 -98.5t92 -39q61 0 97 37t36 96q0 63 -36 101t-93 38t-95 -37.5t-38 -97z" />
<glyph unicode="&#xf3;" horiz-adv-x="1282" d="M57 475q0 227 161 367.5t423 140.5t423 -141.5t161 -372.5q0 -223 -164 -359.5t-430 -136.5q-250 0 -412 142.5t-162 359.5zM510 479.5q0 -59.5 37 -98.5t92 -39q61 0 97 37t36 96q0 63 -36 101t-93 38t-95 -37.5t-38 -97zM547 1221l237 299l240 -150l-301 -262z" />
<glyph unicode="&#xf4;" horiz-adv-x="1282" d="M57 475q0 227 161 367.5t423 140.5t423 -141.5t161 -372.5q0 -223 -164 -359.5t-430 -136.5q-250 0 -412 142.5t-162 359.5zM240 1294l399 207l391 -211l-94 -182l-297 147l-303 -143zM510 479.5q0 -59.5 37 -98.5t92 -39q61 0 97 37t36 96q0 63 -36 101t-93 38 t-95 -37.5t-38 -97z" />
<glyph unicode="&#xf5;" horiz-adv-x="1282" d="M57 475q0 227 161 367.5t423 140.5t423 -141.5t161 -372.5q0 -223 -164 -359.5t-430 -136.5q-250 0 -412 142.5t-162 359.5zM272 1235q129 186 277 186q66 0 102 -20l68 -37q41 -23 76 -23q25 0 43 13.5t59 60.5l180 -82q-115 -201 -266 -200q-53 0 -92 14l-133 53 q-39 14 -56 14q-49 0 -102 -77zM510 479.5q0 -59.5 37 -98.5t92 -39q61 0 97 37t36 96q0 63 -36 101t-93 38t-95 -37.5t-38 -97z" />
<glyph unicode="&#xf6;" horiz-adv-x="1282" d="M57 475q0 227 161 367.5t423 140.5t423 -141.5t161 -372.5q0 -223 -164 -359.5t-430 -136.5q-250 0 -412 142.5t-162 359.5zM272 1286q0 66 46.5 112t112 46t111.5 -46t46 -111.5t-47 -112t-113 -46.5q-63 0 -109.5 47.5t-46.5 110.5zM510 479.5q0 -59.5 37 -98.5t92 -39 q61 0 97 37t36 96q0 63 -36 101t-93 38t-95 -37.5t-38 -97zM709 1286q0 66 47 112t110.5 46t110.5 -46t47 -111.5t-47 -112t-113 -46.5q-63 0 -109 47.5t-46 110.5z" />
<glyph unicode="&#xf7;" d="M211 561v273h1024v-273h-1024zM532 291q0 66 56.5 113t134.5 47q80 0 135 -47.5t55 -115t-55 -115.5t-135 -48t-135.5 48t-55.5 118zM532 1108q0 66 56.5 113t134.5 47q80 0 135 -47t55 -115t-55 -116t-135 -48t-135.5 48t-55.5 118z" />
<glyph unicode="&#xf8;" horiz-adv-x="1460" d="M88 66l145 133q-84 133 -83 276q0 225 160.5 366.5t414.5 141.5q190 0 332 -70l180 154l149 -176l-155 -135q86 -137 86 -285q0 -219 -162 -358.5t-416 -139.5q-178 0 -329 74l-168 -153zM602 479.5q0 -59.5 37 -98.5t92 -39q61 0 97 37t36 96q0 63 -35.5 101t-93 38 t-95.5 -37.5t-38 -97z" />
<glyph unicode="&#xf9;" horiz-adv-x="1286" d="M98 391v565h465v-518q0 -96 80 -96q37 0 58.5 25.5t21.5 70.5v518h465v-550q0 -213 -189 -332q-154 -100 -360 -101q-133 0 -252 46.5t-197 127.5q-92 97 -92 244zM303 1370l240 150l237 -299l-178 -113z" />
<glyph unicode="&#xfa;" horiz-adv-x="1286" d="M98 391v565h465v-518q0 -96 80 -96q37 0 58.5 25.5t21.5 70.5v518h465v-550q0 -213 -189 -332q-154 -100 -360 -101q-133 0 -252 46.5t-197 127.5q-92 97 -92 244zM520 1221l238 299l239 -150l-301 -262z" />
<glyph unicode="&#xfb;" horiz-adv-x="1286" d="M98 391v565h465v-518q0 -96 80 -96q37 0 58.5 25.5t21.5 70.5v518h465v-550q0 -213 -189 -332q-154 -100 -360 -101q-133 0 -252 46.5t-197 127.5q-92 97 -92 244zM254 1294l399 207l391 -211l-94 -182l-297 147l-303 -143z" />
<glyph unicode="&#xfc;" horiz-adv-x="1286" d="M98 391v565h465v-518q0 -96 80 -96q37 0 58.5 25.5t21.5 70.5v518h465v-550q0 -213 -189 -332q-154 -100 -360 -101q-133 0 -252 46.5t-197 127.5q-92 97 -92 244zM274 1286q0 66 47.5 112t111 46t110.5 -46t47 -111.5t-47 -112t-113 -46.5q-63 0 -109.5 47.5 t-46.5 110.5zM711 1286q0 66 46 112t111.5 46t111.5 -46t46 -111.5t-47 -112t-113 -46.5q-63 0 -109 47.5t-46 110.5z" />
<glyph unicode="&#xfd;" horiz-adv-x="1230" d="M-20 956h501l115 -393q16 -49 20 -125h13q8 92 18 125l113 393h491l-616 -1351h-494l250 491zM500 1221l237 299l240 -150l-301 -262z" />
<glyph unicode="&#xfe;" horiz-adv-x="1304" d="M98 -395v1888h467l-4 -469q0 -66 -33 -209l15 -6q39 66 69 90q102 84 236 84q174 0 285.5 -139t111.5 -357q0 -205 -104 -344q-59 -78 -139 -124t-160 -46q-123 0 -226 86q-25 20 -59 72h-14q18 -82 18 -131l4 -395h-467zM543 471q0 -63 33.5 -103t87.5 -40q55 0 92 41 t37 102q0 63 -38 105t-91 42q-55 0 -88 -39.5t-33 -107.5z" />
<glyph unicode="&#xff;" horiz-adv-x="1230" d="M-20 956h501l115 -393q16 -49 20 -125h13q8 92 18 125l113 393h491l-616 -1351h-494l250 491zM260 1286q0 66 46 112t111.5 46t111.5 -46t46 -111.5t-47 -112t-112 -46.5q-63 0 -109.5 47.5t-46.5 110.5zM696 1286q0 66 47.5 112t111 46t110.5 -46t47 -111.5t-47 -112 t-113 -46.5q-63 0 -109.5 47.5t-46.5 110.5z" />
<glyph unicode="&#x152;" horiz-adv-x="2127" d="M76 682q0 291 183 497.5t443 206.5q178 0 314 -96q43 -29 106 -114v190h916v-375h-422v-127h387v-358h-387v-131h438v-375h-932v172q-45 -53 -74.5 -78.5t-70.5 -46.5q-131 -68 -279 -67q-260 0 -441 204.5t-181 497.5zM592 678q0 -106 72.5 -180t177.5 -74 q111 0 178 70.5t67 187.5q0 121 -64.5 190.5t-178.5 69.5q-109 0 -180.5 -74.5t-71.5 -189.5z" />
<glyph unicode="&#x153;" horiz-adv-x="1910" d="M57 467q0 127 56.5 237.5t154.5 178.5q66 45 158 72.5t174 27.5q104 0 205.5 -38t152.5 -97q66 63 165.5 100t203.5 37q143 0 263 -70.5t190 -193.5q68 -119 73 -311h-677v-33q0 -135 116 -135q82 0 88 80h453q-41 -156 -191.5 -252.5t-351.5 -96.5q-106 0 -197.5 36 t-142.5 95q-66 -59 -171 -96t-210 -37q-217 0 -364.5 142.5t-147.5 353.5zM510 479.5q0 -57.5 39 -98.5t92 -41q55 0 94 41t39 98.5t-39 97t-92 39.5q-55 0 -94 -39.5t-39 -97zM1182 614q0 -4 2 -6h217q0 57 -30 92t-77 35q-49 0 -80.5 -34t-31.5 -87z" />
<glyph unicode="&#x178;" horiz-adv-x="1402" d="M-14 1366h561l117 -250q14 -29 36 -108h15q12 51 37 108l106 250h557l-465 -778v-588h-489v588zM285 1659q0 74 52 126t126 52t126 -52t52 -126t-52 -126t-128 -52q-72 0 -124 53t-52 125zM776 1659q0 74 52.5 126t126 52t126 -52t52.5 -126t-52.5 -126t-128.5 -52 q-72 0 -124 53t-52 125z" />
<glyph unicode="&#x2c6;" horiz-adv-x="1024" d="M117 1294l399 207l391 -211l-94 -182l-297 147l-303 -143z" />
<glyph unicode="&#x2dc;" horiz-adv-x="1024" d="M111 1235q129 186 276 186q66 0 102 -20l68 -37q41 -23 76 -23q25 0 43 13.5t59 60.5l180 -82q-115 -201 -266 -200q-53 0 -92 14l-133 53q-39 14 -55 14q-49 0 -103 -77z" />
<glyph unicode="&#x2000;" horiz-adv-x="955" />
<glyph unicode="&#x2001;" horiz-adv-x="1911" />
<glyph unicode="&#x2002;" horiz-adv-x="955" />
<glyph unicode="&#x2003;" horiz-adv-x="1911" />
<glyph unicode="&#x2004;" horiz-adv-x="637" />
<glyph unicode="&#x2005;" horiz-adv-x="477" />
<glyph unicode="&#x2006;" horiz-adv-x="318" />
<glyph unicode="&#x2007;" horiz-adv-x="318" />
<glyph unicode="&#x2008;" horiz-adv-x="238" />
<glyph unicode="&#x2009;" horiz-adv-x="382" />
<glyph unicode="&#x200a;" horiz-adv-x="106" />
<glyph unicode="&#x2010;" horiz-adv-x="645" d="M0 307v371h645v-371h-645z" />
<glyph unicode="&#x2011;" horiz-adv-x="645" d="M0 307v371h645v-371h-645z" />
<glyph unicode="&#x2013;" d="M74 307v371h1300v-371h-1300z" />
<glyph unicode="&#x2014;" horiz-adv-x="1624" d="M0 307v371h1624v-371h-1624z" />
<glyph unicode="&#x2018;" horiz-adv-x="892" d="M96 690l324 676h364l-219 -676h-469z" />
<glyph unicode="&#x2019;" horiz-adv-x="892" d="M109 690l219 676h469l-324 -676h-364z" />
<glyph unicode="&#x201a;" horiz-adv-x="872" d="M109 -328l219 676h448l-303 -676h-364z" />
<glyph unicode="&#x201c;" horiz-adv-x="1437" d="M96 690l303 676h365l-219 -676h-449zM664 690l301 676h364l-219 -676h-446z" />
<glyph unicode="&#x201d;" horiz-adv-x="1437" d="M109 690l219 676h448l-303 -676h-364zM676 690l219 676h446l-301 -676h-364z" />
<glyph unicode="&#x201e;" horiz-adv-x="1437" d="M109 -328l219 676h448l-303 -676h-364zM676 -328l219 676h446l-301 -676h-364z" />
<glyph unicode="&#x2022;" horiz-adv-x="1366" d="M401 694q0 119 84 202t205 83q113 0 196 -84t83 -199q0 -119 -83 -201.5t-200 -82.5t-201 82.5t-84 199.5z" />
<glyph unicode="&#x2026;" horiz-adv-x="2258" d="M106 205q0 94 79 159.5t191.5 65.5t190.5 -66.5t78 -160.5q0 -96 -78 -163t-190 -67q-115 0 -193 67t-78 165zM860 205q0 94 79 159.5t191.5 65.5t190.5 -66.5t78 -160.5q0 -96 -78 -163t-191 -67q-115 0 -192.5 67t-77.5 165zM1612 205q0 94 78.5 159.5t191.5 65.5 t191.5 -66.5t78.5 -160.5q0 -96 -78.5 -163t-191.5 -67q-115 0 -192.5 67t-77.5 165z" />
<glyph unicode="&#x202f;" horiz-adv-x="382" />
<glyph unicode="&#x2039;" horiz-adv-x="643" d="M68 492l301 423l188 -131l-207 -292l207 -306l-188 -131z" />
<glyph unicode="&#x203a;" horiz-adv-x="643" d="M86 186l207 306l-207 292l188 131l301 -423l-301 -437z" />
<glyph unicode="&#x205f;" horiz-adv-x="477" />
<glyph unicode="&#x20ac;" horiz-adv-x="1380" d="M74 561l104 246h94q51 260 243 419.5t452 159.5q188 0 338 -53l-166 -405q-59 23 -109 22q-76 0 -140.5 -39t-98.5 -104h292l-104 -246h-186q80 -145 247 -145q49 0 107 18v-438q-121 -16 -195 -16q-260 0 -453.5 164.5t-232.5 416.5h-192z" />
<glyph unicode="&#x2122;" horiz-adv-x="1695" d="M-6 1094v272h600v-272l-152 8v-514h-295v514zM618 588l123 778h308l94 -348l92 348h305l125 -778h-291l-35 350l-106 -350h-186l-103 344l-33 -344h-293z" />
</font>
</defs>
</svg>
